solid OpenSCAD_Model
  facet normal -2.22045e-16 0 1
    outer loop
      vertex -4.9 20 50
      vertex -4.9 0 50
      vertex 0.1 0 50
    endloop
  endfacet
  facet normal -2.22045e-16 0 1
    outer loop
      vertex 0.1 20 50
      vertex -4.9 20 50
      vertex 0.1 0 50
    endloop
  endfacet
  facet normal 0 -1 0
    outer loop
      vertex 0.1 0 50
      vertex -4.9 0 50
      vertex -4.9 0 -1.11022e-15
    endloop
  endfacet
  facet normal 0 -1 0
    outer loop
      vertex 0.1 0 5
      vertex 0.1 0 50
      vertex -4.9 0 -1.11022e-15
    endloop
  endfacet
  facet normal 0 -1 0
    outer loop
      vertex 0.1 0 0
      vertex 0.1 0 5
      vertex -4.9 0 -1.11022e-15
    endloop
  endfacet
  facet normal 0 -1 0
    outer loop
      vertex 75 0 0
      vertex 70 0 0
      vertex 70 0 -1.11022e-15
    endloop
  endfacet
  facet normal 0 -1 0
    outer loop
      vertex 75 0 20
      vertex 70 0 20
      vertex 75 0 0
    endloop
  endfacet
  facet normal 0 -1 0
    outer loop
      vertex 70 0 20
      vertex 70 0 5
      vertex 75 0 0
    endloop
  endfacet
  facet normal 0 -1 0
    outer loop
      vertex 70 0 0
      vertex 0.1 0 5
      vertex 0.1 0 0
    endloop
  endfacet
  facet normal 0 -1 0
    outer loop
      vertex 70 0 5
      vertex 70 0 0
      vertex 75 0 0
    endloop
  endfacet
  facet normal 0 -1 0
    outer loop
      vertex 70 0 5
      vertex 0.1 0 5
      vertex 70 0 0
    endloop
  endfacet
  facet normal -1 0 -2.22045e-16
    outer loop
      vertex -4.9 0 50
      vertex -4.9 20 50
      vertex -4.9 0 -1.11022e-15
    endloop
  endfacet
  facet normal -1 0 -2.22045e-16
    outer loop
      vertex -4.9 0 -1.11022e-15
      vertex -4.9 20 50
      vertex -4.9 20 -1.11022e-15
    endloop
  endfacet
  facet normal 0 1 0
    outer loop
      vertex -4.9 20 50
      vertex 0.1 20 50
      vertex -4.9 20 -1.11022e-15
    endloop
  endfacet
  facet normal 0 1 0
    outer loop
      vertex -4.9 20 -1.11022e-15
      vertex 0.1 20 50
      vertex 0.1 20 5
    endloop
  endfacet
  facet normal 0 1 0
    outer loop
      vertex -4.9 20 -1.11022e-15
      vertex 0.1 20 5
      vertex 70 20 5
    endloop
  endfacet
  facet normal 0 1 0
    outer loop
      vertex 70 20 5
      vertex 70 20 20
      vertex 75 20 20
    endloop
  endfacet
  facet normal 0 1 0
    outer loop
      vertex 70 20 5
      vertex 75 20 20
      vertex 75 20 0
    endloop
  endfacet
  facet normal 0 1 0
    outer loop
      vertex 70 20 5
      vertex 75 20 0
      vertex 70 20 0
    endloop
  endfacet
  facet normal 0 1 0
    outer loop
      vertex 70 20 5
      vertex 70 20 0
      vertex 0.1 20 0
    endloop
  endfacet
  facet normal 0 1 0
    outer loop
      vertex 70 20 5
      vertex 0.1 20 0
      vertex -4.9 20 -1.11022e-15
    endloop
  endfacet
  facet normal 0 1 0
    outer loop
      vertex 70 20 0
      vertex 75 20 0
      vertex 70 20 -1.11022e-15
    endloop
  endfacet
  facet normal 1 0 2.22045e-16
    outer loop
      vertex 0.1 20 50
      vertex 0.1 0 50
      vertex 0.1 0 5
    endloop
  endfacet
  facet normal 1 0 2.22045e-16
    outer loop
      vertex 0.1 20 5
      vertex 0.1 20 50
      vertex 0.1 0 5
    endloop
  endfacet
  facet normal 0 0 1
    outer loop
      vertex 0.1 20 5
      vertex 0.1 0 5
      vertex 70 0 5
    endloop
  endfacet
  facet normal 0 0 1
    outer loop
      vertex 70 20 5
      vertex 0.1 20 5
      vertex 70 0 5
    endloop
  endfacet
  facet normal -1 0 -2.22045e-16
    outer loop
      vertex 70 0 20
      vertex 70 20 20
      vertex 70 0 5
    endloop
  endfacet
  facet normal -1 0 -2.22045e-16
    outer loop
      vertex 70 0 5
      vertex 70 20 20
      vertex 70 20 5
    endloop
  endfacet
  facet normal -2.22045e-16 0 1
    outer loop
      vertex 70 20 20
      vertex 70 0 20
      vertex 75 0 20
    endloop
  endfacet
  facet normal -2.22045e-16 0 1
    outer loop
      vertex 75 20 20
      vertex 70 20 20
      vertex 75 0 20
    endloop
  endfacet
  facet normal 1 0 2.22045e-16
    outer loop
      vertex 75 20 20
      vertex 75 0 20
      vertex 75 0 0
    endloop
  endfacet
  facet normal 1 0 2.22045e-16
    outer loop
      vertex 75 20 0
      vertex 75 20 20
      vertex 75 0 0
    endloop
  endfacet
  facet normal 2.22045e-16 0 -1
    outer loop
      vertex 70 0 -1.11022e-15
      vertex 70 20 -1.11022e-15
      vertex 75 0 0
    endloop
  endfacet
  facet normal 2.22045e-16 0 -1
    outer loop
      vertex 75 0 0
      vertex 70 20 -1.11022e-15
      vertex 75 20 0
    endloop
  endfacet
  facet normal -1 0 -2.22045e-16
    outer loop
      vertex 70 0 0
      vertex 70 20 0
      vertex 70 0 -1.11022e-15
    endloop
  endfacet
  facet normal -1 0 -2.22045e-16
    outer loop
      vertex 70 0 -1.11022e-15
      vertex 70 20 0
      vertex 70 20 -1.11022e-15
    endloop
  endfacet
  facet normal 0 0 -1
    outer loop
      vertex 0.1 0 0
      vertex 0.1 20 0
      vertex 70 0 0
    endloop
  endfacet
  facet normal 0 0 -1
    outer loop
      vertex 70 0 0
      vertex 0.1 20 0
      vertex 70 20 0
    endloop
  endfacet
  facet normal 2.22045e-16 0 -1
    outer loop
      vertex -4.9 0 -1.11022e-15
      vertex -4.9 20 -1.11022e-15
      vertex 0.1 0 0
    endloop
  endfacet
  facet normal 2.22045e-16 0 -1
    outer loop
      vertex 0.1 0 0
      vertex -4.9 20 -1.11022e-15
      vertex 0.1 20 0
    endloop
  endfacet
endsolid OpenSCAD_Model
