solid OpenSCAD_Model
  facet normal -1 0 0
    outer loop
      vertex 0 4.05519e-05 0
      vertex 0 0 0
      vertex 0 4.05519e-05 1.79999
    endloop
  endfacet
  facet normal -1 0 0
    outer loop
      vertex 0 0.10004 1.79999
      vertex 0 1 9
      vertex 0 1 1.71835
    endloop
  endfacet
  facet normal -1 0 0
    outer loop
      vertex 0 0 9
      vertex 0 0.10004 1.79999
      vertex 0 4.05519e-05 1.79999
    endloop
  endfacet
  facet normal -1 0 0
    outer loop
      vertex 0 0.10004 1.79999
      vertex 0 0 9
      vertex 0 1 9
    endloop
  endfacet
  facet normal -1 0 0
    outer loop
      vertex 0 0 9
      vertex 0 4.05519e-05 1.79999
      vertex 0 0 0
    endloop
  endfacet
  facet normal 0 -1 0
    outer loop
      vertex 0 0 0
      vertex 18.9 0 9
      vertex 0 0 9
    endloop
  endfacet
  facet normal 0 -1 -0
    outer loop
      vertex 18.9 0 9
      vertex 0 0 0
      vertex 18.9 0 0
    endloop
  endfacet
  facet normal -0.997459 0.071247 0
    outer loop
      vertex 3.45 48.9999 1.79999
      vertex 3.45 49 0
      vertex 3.45 48.9999 0
    endloop
  endfacet
  facet normal -0.997459 0.071247 0
    outer loop
      vertex 3.45 49 0
      vertex 3.45 48.9999 1.79999
      vertex 3.45 49 9
    endloop
  endfacet
  facet normal -0.997429 0.071665 -3.1159e-09
    outer loop
      vertex 3.44979 48.9971 1.79999
      vertex 3.45 49 9
      vertex 3.45 48.9999 1.79999
    endloop
  endfacet
  facet normal -0.997427 0.0716901 -1.32106e-08
    outer loop
      vertex 0 1 1.71835
      vertex 3.45 49 9
      vertex 3.44979 48.9971 1.79999
    endloop
  endfacet
  facet normal -0.997427 0.0716901 0
    outer loop
      vertex 3.45 49 9
      vertex 0 1 1.71835
      vertex 0 1 9
    endloop
  endfacet
  facet normal 0 0 1
    outer loop
      vertex 13.561 31.6323 1.8
      vertex 13.561 27.9717 1.8
      vertex 13.95 29.802 1.8
    endloop
  endfacet
  facet normal 0 0 1
    outer loop
      vertex 12.4611 33.1462 1.8
      vertex 13.561 27.9717 1.8
      vertex 13.561 31.6323 1.8
    endloop
  endfacet
  facet normal 0 0 1
    outer loop
      vertex 12.4611 33.1462 1.8
      vertex 12.4611 26.4578 1.8
      vertex 13.561 27.9717 1.8
    endloop
  endfacet
  facet normal 0 0 1
    outer loop
      vertex 10.8406 34.0818 1.8
      vertex 12.4611 26.4578 1.8
      vertex 12.4611 33.1462 1.8
    endloop
  endfacet
  facet normal 0 0 1
    outer loop
      vertex 10.8406 34.0818 1.8
      vertex 10.8406 25.5222 1.8
      vertex 12.4611 26.4578 1.8
    endloop
  endfacet
  facet normal 0 0 1
    outer loop
      vertex 8.97962 34.2773 1.8
      vertex 10.8406 25.5222 1.8
      vertex 10.8406 34.0818 1.8
    endloop
  endfacet
  facet normal 0 0 1
    outer loop
      vertex 8.97962 34.2773 1.8
      vertex 8.97962 25.3267 1.8
      vertex 10.8406 25.5222 1.8
    endloop
  endfacet
  facet normal -0 0 1
    outer loop
      vertex 7.2 33.6991 1.8
      vertex 8.97962 25.3267 1.8
      vertex 8.97962 34.2773 1.8
    endloop
  endfacet
  facet normal 0 0 1
    outer loop
      vertex 7.2 33.6991 1.8
      vertex 7.2 25.9049 1.8
      vertex 8.97962 25.3267 1.8
    endloop
  endfacet
  facet normal -0 0 1
    outer loop
      vertex 5.80942 32.447 1.8
      vertex 7.2 25.9049 1.8
      vertex 7.2 33.6991 1.8
    endloop
  endfacet
  facet normal 0 0 1
    outer loop
      vertex 5.80942 32.447 1.8
      vertex 5.80942 27.157 1.8
      vertex 7.2 25.9049 1.8
    endloop
  endfacet
  facet normal -0 0 1
    outer loop
      vertex 5.04834 30.7376 1.8
      vertex 5.80942 27.157 1.8
      vertex 5.80942 32.447 1.8
    endloop
  endfacet
  facet normal 0 0 1
    outer loop
      vertex 5.80942 27.157 1.8
      vertex 5.04834 30.7376 1.8
      vertex 5.04834 28.8664 1.8
    endloop
  endfacet
  facet normal 0 0 -1
    outer loop
      vertex 0 4.05519e-05 0
      vertex 18.9 4.05519e-05 0
      vertex 18.9 0 0
    endloop
  endfacet
  facet normal 0 0 -1
    outer loop
      vertex 18.9 4.05519e-05 0
      vertex 15.45 49 0
      vertex 16.85 49 0
    endloop
  endfacet
  facet normal 0 0 -1
    outer loop
      vertex 18.9 4.05519e-05 0
      vertex 3.45 48.9999 0
      vertex 15.45 49 0
    endloop
  endfacet
  facet normal -0 0 -1
    outer loop
      vertex 15.45 49 0
      vertex 3.45 48.9999 0
      vertex 3.45 49 0
    endloop
  endfacet
  facet normal 0 0 -1
    outer loop
      vertex 3.45 48.9999 0
      vertex 2.05 49 0
      vertex 3.45 49 0
    endloop
  endfacet
  facet normal 0 0 -1
    outer loop
      vertex 18.9 4.05519e-05 0
      vertex 0 4.05519e-05 0
      vertex 3.45 48.9999 0
    endloop
  endfacet
  facet normal 0 0 -1
    outer loop
      vertex 0 4.05519e-05 0
      vertex 18.9 0 0
      vertex 0 0 0
    endloop
  endfacet
  facet normal -0 0 -1
    outer loop
      vertex 3.45 48.9999 0
      vertex 0 4.05519e-05 0
      vertex 2.05 49 0
    endloop
  endfacet
  facet normal 0 0 -1
    outer loop
      vertex -1.4 0.0999994 0
      vertex 0 4.05519e-05 0
      vertex -2.86102e-06 0 0
    endloop
  endfacet
  facet normal 0 0 -1
    outer loop
      vertex -1.4 0.0999994 0
      vertex -2.86102e-06 0 0
      vertex -1.4 0 0
    endloop
  endfacet
  facet normal 0 0 -1
    outer loop
      vertex 0 4.05519e-05 0
      vertex -1.4 0.0999994 0
      vertex 2.05 49 0
    endloop
  endfacet
  facet normal 0 0 -1
    outer loop
      vertex 18.9 4.05519e-05 0
      vertex 20.3 0 0
      vertex 18.9 0 0
    endloop
  endfacet
  facet normal 0 0 -1
    outer loop
      vertex 20.3 0 0
      vertex 18.9 4.05519e-05 0
      vertex 20.3 0.0999994 0
    endloop
  endfacet
  facet normal -0 0 -1
    outer loop
      vertex 20.3 0.0999994 0
      vertex 18.9 4.05519e-05 0
      vertex 16.85 49 0
    endloop
  endfacet
  facet normal 1 0 0
    outer loop
      vertex 18.9 1 9
      vertex 18.9 0.10004 1.79999
      vertex 18.9 1 1.71835
    endloop
  endfacet
  facet normal 1 -0 0
    outer loop
      vertex 18.9 0 9
      vertex 18.9 0.10004 1.79999
      vertex 18.9 1 9
    endloop
  endfacet
  facet normal 1 0 0
    outer loop
      vertex 18.9 0.10004 1.79999
      vertex 18.9 0 9
      vertex 18.9 4.05519e-05 1.79999
    endloop
  endfacet
  facet normal 1 0 0
    outer loop
      vertex 18.9 0 0
      vertex 18.9 4.05519e-05 1.79999
      vertex 18.9 0 9
    endloop
  endfacet
  facet normal 1 0 0
    outer loop
      vertex 18.9 4.05519e-05 1.79999
      vertex 18.9 0 0
      vertex 18.9 4.05519e-05 0
    endloop
  endfacet
  facet normal 0 1 -0
    outer loop
      vertex 15.45 49 0
      vertex 3.45 49 9
      vertex 15.45 49 9
    endloop
  endfacet
  facet normal 0 1 0
    outer loop
      vertex 3.45 49 9
      vertex 15.45 49 0
      vertex 3.45 49 0
    endloop
  endfacet
  facet normal 0.997199 0.0747899 0
    outer loop
      vertex 15.45 49 9
      vertex 15.45 49 1.79999
      vertex 15.45 49 0
    endloop
  endfacet
  facet normal 0.997431 0.0716288 1.68404e-08
    outer loop
      vertex 15.45 49 9
      vertex 15.4502 48.9978 1.79999
      vertex 15.45 49 1.79999
    endloop
  endfacet
  facet normal 0.997427 0.0716901 -1.65023e-09
    outer loop
      vertex 18.9 1 9
      vertex 15.4502 48.9978 1.79999
      vertex 15.45 49 9
    endloop
  endfacet
  facet normal 0.997427 0.0716901 0
    outer loop
      vertex 15.4502 48.9978 1.79999
      vertex 18.9 1 9
      vertex 18.9 1 1.71835
    endloop
  endfacet
  facet normal -0.788131 0.0555784 0.612993
    outer loop
      vertex 2.05 49 0
      vertex 3.44979 48.9971 1.79999
      vertex 3.45 49 1.79999
    endloop
  endfacet
  facet normal -0.78813 0.0556043 0.612992
    outer loop
      vertex 2.05 49 0
      vertex 0 1 1.71835
      vertex 3.44979 48.9971 1.79999
    endloop
  endfacet
  facet normal -0.78813 0.0556043 0.612992
    outer loop
      vertex -1.4 0.0999994 0
      vertex 0 1 1.71835
      vertex 2.05 49 0
    endloop
  endfacet
  facet normal -0.78813 0.0556043 0.612992
    outer loop
      vertex -1.4 0.0999994 0
      vertex 0 0.10004 1.79999
      vertex 0 1 1.71835
    endloop
  endfacet
  facet normal -0.78813 0.0556021 0.612992
    outer loop
      vertex 0 0.10004 1.79999
      vertex -1.4 0.0999994 0
      vertex -2.86102e-06 0.0999994 1.79999
    endloop
  endfacet
  facet normal 1 -0 0
    outer loop
      vertex 3.45 48.9999 1.79999
      vertex 3.45 49 0
      vertex 3.45 49 1.79999
    endloop
  endfacet
  facet normal 1 0 0
    outer loop
      vertex 3.45 49 0
      vertex 3.45 48.9999 1.79999
      vertex 3.45 48.9999 0
    endloop
  endfacet
  facet normal 0.99752 -0.0703772 0
    outer loop
      vertex -2.86102e-06 0 1.79999
      vertex 0 4.05519e-05 0
      vertex 0 4.05519e-05 1.79999
    endloop
  endfacet
  facet normal 0.99752 -0.0703772 0
    outer loop
      vertex 0 4.05519e-05 0
      vertex -2.86102e-06 0 1.79999
      vertex -2.86102e-06 0 0
    endloop
  endfacet
  facet normal 0 1 -0
    outer loop
      vertex 3.45 49 0
      vertex 2.05 49 0
      vertex 3.45 49 1.79999
    endloop
  endfacet
  facet normal -0 0 1
    outer loop
      vertex -2.86102e-06 0.0999994 1.79999
      vertex 0 4.05519e-05 1.79999
      vertex 0 0.10004 1.79999
    endloop
  endfacet
  facet normal 0 0 1
    outer loop
      vertex 0 4.05519e-05 1.79999
      vertex -2.86102e-06 0.0999994 1.79999
      vertex -2.86102e-06 0 1.79999
    endloop
  endfacet
  facet normal 0 0 1
    outer loop
      vertex 3.45 49 1.79999
      vertex 3.44979 48.9971 1.79999
      vertex 3.45 48.9999 1.79999
    endloop
  endfacet
  facet normal 0 -1 -0
    outer loop
      vertex -2.86102e-06 0 1.79999
      vertex -1.4 0 0
      vertex -2.86102e-06 0 0
    endloop
  endfacet
  facet normal -0.789351 0 0.613942
    outer loop
      vertex -1.4 0 0
      vertex -2.86102e-06 0.0999994 1.79999
      vertex -1.4 0.0999994 0
    endloop
  endfacet
  facet normal -0.789351 0 0.613942
    outer loop
      vertex -2.86102e-06 0.0999994 1.79999
      vertex -1.4 0 0
      vertex -2.86102e-06 0 1.79999
    endloop
  endfacet
  facet normal 0.78813 0.0556 0.612992
    outer loop
      vertex 15.4502 48.9978 1.79999
      vertex 16.85 49 0
      vertex 15.45 49 1.79999
    endloop
  endfacet
  facet normal 0.78813 0.0556043 0.612992
    outer loop
      vertex 18.9 1 1.71835
      vertex 16.85 49 0
      vertex 15.4502 48.9978 1.79999
    endloop
  endfacet
  facet normal 0.788808 0.0370999 0.613519
    outer loop
      vertex 20.3 0.0999994 0
      vertex 18.9 0.10004 1.79999
      vertex 18.9 0.0999994 1.79999
    endloop
  endfacet
  facet normal 0.78813 0.0556043 0.612991
    outer loop
      vertex 18.9 1 1.71835
      vertex 20.3 0.0999994 0
      vertex 16.85 49 0
    endloop
  endfacet
  facet normal 0.78813 0.0556043 0.612991
    outer loop
      vertex 18.9 0.10004 1.79999
      vertex 20.3 0.0999994 0
      vertex 18.9 1 1.71835
    endloop
  endfacet
  facet normal 0 0 1
    outer loop
      vertex 18.9 4.05519e-05 1.79999
      vertex 18.9 0.0999994 1.79999
      vertex 18.9 0.10004 1.79999
    endloop
  endfacet
  facet normal 0 0 1
    outer loop
      vertex 18.9 0.0999994 1.79999
      vertex 18.9 4.05519e-05 1.79999
      vertex 18.9 0 1.79999
    endloop
  endfacet
  facet normal 0 1 0
    outer loop
      vertex 16.85 49 0
      vertex 15.45 49 0
      vertex 15.45 49 1.79999
    endloop
  endfacet
  facet normal -0.998896 -0.0469828 0
    outer loop
      vertex 18.9 0 0
      vertex 18.9 4.05519e-05 1.79999
      vertex 18.9 4.05519e-05 0
    endloop
  endfacet
  facet normal -0.998896 -0.0469828 0
    outer loop
      vertex 18.9 4.05519e-05 1.79999
      vertex 18.9 0 0
      vertex 18.9 0 1.79999
    endloop
  endfacet
  facet normal 0 -1 0
    outer loop
      vertex 18.9 0 1.79999
      vertex 18.9 0 0
      vertex 20.3 0 0
    endloop
  endfacet
  facet normal 0.789351 -0 0.613942
    outer loop
      vertex 18.9 0 1.79999
      vertex 20.3 0.0999994 0
      vertex 18.9 0.0999994 1.79999
    endloop
  endfacet
  facet normal 0.789351 0 0.613942
    outer loop
      vertex 20.3 0.0999994 0
      vertex 18.9 0 1.79999
      vertex 20.3 0 0
    endloop
  endfacet
  facet normal 0 0 1
    outer loop
      vertex 15.45 49 9
      vertex 13.561 31.6323 9
      vertex 13.95 29.802 9
    endloop
  endfacet
  facet normal 0 0 1
    outer loop
      vertex 15.45 49 9
      vertex 12.4611 33.1462 9
      vertex 13.561 31.6323 9
    endloop
  endfacet
  facet normal 0 0 1
    outer loop
      vertex 15.45 49 9
      vertex 10.8406 34.0818 9
      vertex 12.4611 33.1462 9
    endloop
  endfacet
  facet normal 0 0 1
    outer loop
      vertex 15.45 49 9
      vertex 8.97962 34.2773 9
      vertex 10.8406 34.0818 9
    endloop
  endfacet
  facet normal -0 0 1
    outer loop
      vertex 3.45 49 9
      vertex 8.97962 34.2773 9
      vertex 15.45 49 9
    endloop
  endfacet
  facet normal 0 0 1
    outer loop
      vertex 8.97962 34.2773 9
      vertex 3.45 49 9
      vertex 7.2 33.6991 9
    endloop
  endfacet
  facet normal 0 0 1
    outer loop
      vertex 0 1 9
      vertex 5.04834 30.7376 9
      vertex 3.45 49 9
    endloop
  endfacet
  facet normal 0 0 1
    outer loop
      vertex 5.80942 32.447 9
      vertex 3.45 49 9
      vertex 5.04834 30.7376 9
    endloop
  endfacet
  facet normal 0 0 1
    outer loop
      vertex 7.2 33.6991 9
      vertex 3.45 49 9
      vertex 5.80942 32.447 9
    endloop
  endfacet
  facet normal -0 0 1
    outer loop
      vertex 13.95 29.802 9
      vertex 18.9 1 9
      vertex 15.45 49 9
    endloop
  endfacet
  facet normal -0 0 1
    outer loop
      vertex 13.561 27.9717 9
      vertex 18.9 1 9
      vertex 13.95 29.802 9
    endloop
  endfacet
  facet normal -0 0 1
    outer loop
      vertex 12.4611 26.4578 9
      vertex 18.9 1 9
      vertex 13.561 27.9717 9
    endloop
  endfacet
  facet normal -0 0 1
    outer loop
      vertex 10.8406 25.5222 9
      vertex 18.9 1 9
      vertex 12.4611 26.4578 9
    endloop
  endfacet
  facet normal -0 0 1
    outer loop
      vertex 8.97962 25.3267 9
      vertex 18.9 1 9
      vertex 10.8406 25.5222 9
    endloop
  endfacet
  facet normal 0 0 1
    outer loop
      vertex 0 1 9
      vertex 18.9 1 9
      vertex 8.97962 25.3267 9
    endloop
  endfacet
  facet normal 0 0 1
    outer loop
      vertex 0 1 9
      vertex 8.97962 25.3267 9
      vertex 7.2 25.9049 9
    endloop
  endfacet
  facet normal 0 0 1
    outer loop
      vertex 0 1 9
      vertex 7.2 25.9049 9
      vertex 5.80942 27.157 9
    endloop
  endfacet
  facet normal 0 0 1
    outer loop
      vertex 5.04834 30.7376 9
      vertex 0 1 9
      vertex 5.04834 28.8664 9
    endloop
  endfacet
  facet normal 0 0 1
    outer loop
      vertex 0 1 9
      vertex 5.80942 27.157 9
      vertex 5.04834 28.8664 9
    endloop
  endfacet
  facet normal 0 0 1
    outer loop
      vertex 18.9 1 9
      vertex 0 1 9
      vertex 18.9 0 9
    endloop
  endfacet
  facet normal 0 0 1
    outer loop
      vertex 18.9 0 9
      vertex 0 1 9
      vertex 0 0 9
    endloop
  endfacet
  facet normal -0.978148 -0.207912 0
    outer loop
      vertex 13.95 29.802 1.8
      vertex 13.561 31.6323 9
      vertex 13.561 31.6323 1.8
    endloop
  endfacet
  facet normal -0.978148 -0.207912 0
    outer loop
      vertex 13.561 31.6323 9
      vertex 13.95 29.802 1.8
      vertex 13.95 29.802 9
    endloop
  endfacet
  facet normal 1 -0 0
    outer loop
      vertex 5.04834 28.8664 9
      vertex 5.04834 30.7376 1.8
      vertex 5.04834 30.7376 9
    endloop
  endfacet
  facet normal 1 0 0
    outer loop
      vertex 5.04834 30.7376 1.8
      vertex 5.04834 28.8664 9
      vertex 5.04834 28.8664 1.8
    endloop
  endfacet
  facet normal -0.104529 -0.994522 0
    outer loop
      vertex 8.97962 34.2773 1.8
      vertex 10.8406 34.0818 9
      vertex 8.97962 34.2773 9
    endloop
  endfacet
  facet normal -0.104529 -0.994522 -0
    outer loop
      vertex 10.8406 34.0818 9
      vertex 8.97962 34.2773 1.8
      vertex 10.8406 34.0818 1.8
    endloop
  endfacet
  facet normal -0.809017 -0.587785 0
    outer loop
      vertex 13.561 31.6323 1.8
      vertex 12.4611 33.1462 9
      vertex 12.4611 33.1462 1.8
    endloop
  endfacet
  facet normal -0.809017 -0.587785 0
    outer loop
      vertex 12.4611 33.1462 9
      vertex 13.561 31.6323 1.8
      vertex 13.561 31.6323 9
    endloop
  endfacet
  facet normal -0.104529 0.994522 0
    outer loop
      vertex 10.8406 25.5222 1.8
      vertex 8.97962 25.3267 9
      vertex 10.8406 25.5222 9
    endloop
  endfacet
  facet normal -0.104529 0.994522 0
    outer loop
      vertex 8.97962 25.3267 9
      vertex 10.8406 25.5222 1.8
      vertex 8.97962 25.3267 1.8
    endloop
  endfacet
  facet normal -0.5 0.866025 0
    outer loop
      vertex 12.4611 26.4578 1.8
      vertex 10.8406 25.5222 9
      vertex 12.4611 26.4578 9
    endloop
  endfacet
  facet normal -0.5 0.866025 0
    outer loop
      vertex 10.8406 25.5222 9
      vertex 12.4611 26.4578 1.8
      vertex 10.8406 25.5222 1.8
    endloop
  endfacet
  facet normal -0.499999 -0.866026 0
    outer loop
      vertex 10.8406 34.0818 1.8
      vertex 12.4611 33.1462 9
      vertex 10.8406 34.0818 9
    endloop
  endfacet
  facet normal -0.499999 -0.866026 -0
    outer loop
      vertex 12.4611 33.1462 9
      vertex 10.8406 34.0818 1.8
      vertex 12.4611 33.1462 1.8
    endloop
  endfacet
  facet normal 0.66913 -0.743145 0
    outer loop
      vertex 5.80942 32.447 1.8
      vertex 7.2 33.6991 9
      vertex 5.80942 32.447 9
    endloop
  endfacet
  facet normal 0.66913 -0.743145 0
    outer loop
      vertex 7.2 33.6991 9
      vertex 5.80942 32.447 1.8
      vertex 7.2 33.6991 1.8
    endloop
  endfacet
  facet normal 0.913545 -0.406737 0
    outer loop
      vertex 5.04834 30.7376 9
      vertex 5.80942 32.447 1.8
      vertex 5.80942 32.447 9
    endloop
  endfacet
  facet normal 0.913545 -0.406737 0
    outer loop
      vertex 5.80942 32.447 1.8
      vertex 5.04834 30.7376 9
      vertex 5.04834 30.7376 1.8
    endloop
  endfacet
  facet normal 0.309018 -0.951056 0
    outer loop
      vertex 7.2 33.6991 1.8
      vertex 8.97962 34.2773 9
      vertex 7.2 33.6991 9
    endloop
  endfacet
  facet normal 0.309018 -0.951056 0
    outer loop
      vertex 8.97962 34.2773 9
      vertex 7.2 33.6991 1.8
      vertex 8.97962 34.2773 1.8
    endloop
  endfacet
  facet normal -0.978148 0.207912 0
    outer loop
      vertex 13.561 27.9717 1.8
      vertex 13.95 29.802 9
      vertex 13.95 29.802 1.8
    endloop
  endfacet
  facet normal -0.978148 0.207912 0
    outer loop
      vertex 13.95 29.802 9
      vertex 13.561 27.9717 1.8
      vertex 13.561 27.9717 9
    endloop
  endfacet
  facet normal 0.309017 0.951057 -0
    outer loop
      vertex 8.97962 25.3267 1.8
      vertex 7.2 25.9049 9
      vertex 8.97962 25.3267 9
    endloop
  endfacet
  facet normal 0.309017 0.951057 0
    outer loop
      vertex 7.2 25.9049 9
      vertex 8.97962 25.3267 1.8
      vertex 7.2 25.9049 1.8
    endloop
  endfacet
  facet normal 0.913545 0.406737 0
    outer loop
      vertex 5.80942 27.157 9
      vertex 5.04834 28.8664 1.8
      vertex 5.04834 28.8664 9
    endloop
  endfacet
  facet normal 0.913545 0.406737 0
    outer loop
      vertex 5.04834 28.8664 1.8
      vertex 5.80942 27.157 9
      vertex 5.80942 27.157 1.8
    endloop
  endfacet
  facet normal -0.809017 0.587785 0
    outer loop
      vertex 12.4611 26.4578 1.8
      vertex 13.561 27.9717 9
      vertex 13.561 27.9717 1.8
    endloop
  endfacet
  facet normal -0.809017 0.587785 0
    outer loop
      vertex 13.561 27.9717 9
      vertex 12.4611 26.4578 1.8
      vertex 12.4611 26.4578 9
    endloop
  endfacet
  facet normal 0.669131 0.743144 -0
    outer loop
      vertex 7.2 25.9049 1.8
      vertex 5.80942 27.157 9
      vertex 7.2 25.9049 9
    endloop
  endfacet
  facet normal 0.669131 0.743144 0
    outer loop
      vertex 5.80942 27.157 9
      vertex 7.2 25.9049 1.8
      vertex 5.80942 27.157 1.8
    endloop
  endfacet
endsolid OpenSCAD_Model
