solid OpenSCAD_Model
  facet normal 0.645933 0.329119 0.688805
    outer loop
      vertex 5.05636 3.67366 1
      vertex 4.89548 1.89652 2
      vertex 5.9441 1.93136 1
    endloop
  endfacet
  facet normal 0.173569 -0.650883 0.739071
    outer loop
      vertex 2.34013 -4.69961 2
      vertex 1.93135 -5.9441 1
      vertex 1.93136 -5.9441 1
    endloop
  endfacet
  facet normal 0.185455 -0.651806 0.735361
    outer loop
      vertex 1.93135 -5.9441 1
      vertex 2.34013 -4.69961 2
      vertex 0.484408 -5.2276 2
    endloop
  endfacet
  facet normal 0.682272 -0.127539 0.719888
    outer loop
      vertex 4.89548 -1.89652 2
      vertex 5.9441 -1.93135 1
      vertex 5.25 0 2
    endloop
  endfacet
  facet normal 0.675693 -0.180185 0.714824
    outer loop
      vertex 5.9441 -1.93135 1
      vertex 4.89548 -1.89652 2
      vertex 5.9441 -1.93136 1
    endloop
  endfacet
  facet normal 0.40774 -0.539935 0.736355
    outer loop
      vertex 2.34013 -4.69961 2
      vertex 3.67366 -5.05635 1
      vertex 3.8798 -3.5369 2
    endloop
  endfacet
  facet normal 0.645933 -0.329119 0.688805
    outer loop
      vertex 5.9441 -1.93136 1
      vertex 4.89548 -1.89652 2
      vertex 5.05636 -3.67366 1
    endloop
  endfacet
  facet normal 0.518142 0.518142 0.680483
    outer loop
      vertex 5.05635 3.67366 1
      vertex 3.67366 5.05635 1
      vertex 3.8798 3.5369 2
    endloop
  endfacet
  facet normal 0.114323 0.721804 0.68259
    outer loop
      vertex 1.93135 5.9441 1
      vertex 4.61967e-07 6.25 1
      vertex 0.484408 5.2276 2
    endloop
  endfacet
  facet normal -0.633596 -0.245457 0.733694
    outer loop
      vertex -5.16061 -0.964684 2
      vertex -5.9441 -1.93136 1
      vertex -4.46364 -2.76377 2
    endloop
  endfacet
  facet normal -0.681146 -0.181639 0.709258
    outer loop
      vertex -5.9441 -1.93136 1
      vertex -5.16061 -0.964684 2
      vertex -5.9441 -1.93135 1
    endloop
  endfacet
  facet normal 0.518142 -0.518142 0.680483
    outer loop
      vertex 3.8798 -3.5369 2
      vertex 3.67366 -5.05635 1
      vertex 5.05635 -3.67366 1
    endloop
  endfacet
  facet normal -0.648825 0.330593 0.685372
    outer loop
      vertex -5.05635 3.67366 1
      vertex -5.9441 1.93136 1
      vertex -4.46364 2.76377 2
    endloop
  endfacet
  facet normal -0.509404 0.464383 0.724469
    outer loop
      vertex -5.05635 3.67366 1
      vertex -4.46364 2.76377 2
      vertex -3.16383 4.18959 2
    endloop
  endfacet
  facet normal -0.648825 -0.330593 0.685372
    outer loop
      vertex -4.46364 -2.76377 2
      vertex -5.9441 -1.93136 1
      vertex -5.05635 -3.67366 1
    endloop
  endfacet
  facet normal -0 0 1
    outer loop
      vertex 4.29385 1.56283 2
      vertex 5.25 0 2
      vertex 4.89548 1.89652 2
    endloop
  endfacet
  facet normal 0 0 1
    outer loop
      vertex 4.29385 -1.56283 2
      vertex 5.25 0 2
      vertex 4.56942 0 2
    endloop
  endfacet
  facet normal 0 0 1
    outer loop
      vertex 5.25 0 2
      vertex 4.29385 1.56283 2
      vertex 4.56942 0 2
    endloop
  endfacet
  facet normal -0 0 1
    outer loop
      vertex 3.50038 2.93717 2
      vertex 4.89548 1.89652 2
      vertex 3.8798 3.5369 2
    endloop
  endfacet
  facet normal 0 0 1
    outer loop
      vertex 4.89548 1.89652 2
      vertex 3.50038 2.93717 2
      vertex 4.29385 1.56283 2
    endloop
  endfacet
  facet normal -0 0 1
    outer loop
      vertex 2.28471 3.95723 2
      vertex 3.8798 3.5369 2
      vertex 2.34013 4.69961 2
    endloop
  endfacet
  facet normal 0 0 1
    outer loop
      vertex 3.8798 3.5369 2
      vertex 2.28471 3.95723 2
      vertex 3.50038 2.93717 2
    endloop
  endfacet
  facet normal 0 0 1
    outer loop
      vertex 2.34013 4.69961 2
      vertex 0.793471 4.5 2
      vertex 2.28471 3.95723 2
    endloop
  endfacet
  facet normal 0 0 1
    outer loop
      vertex 0.484408 5.2276 2
      vertex 0.793471 4.5 2
      vertex 2.34013 4.69961 2
    endloop
  endfacet
  facet normal 0 0 1
    outer loop
      vertex 0.484408 5.2276 2
      vertex -0.793471 4.5 2
      vertex 0.793471 4.5 2
    endloop
  endfacet
  facet normal -0 0 1
    outer loop
      vertex -1.43673 5.04958 2
      vertex -0.793471 4.5 2
      vertex 0.484408 5.2276 2
    endloop
  endfacet
  facet normal 0 0 1
    outer loop
      vertex -1.43673 5.04958 2
      vertex -2.28471 3.95723 2
      vertex -0.793471 4.5 2
    endloop
  endfacet
  facet normal -0 0 1
    outer loop
      vertex -3.16383 4.18959 2
      vertex -2.28471 3.95723 2
      vertex -1.43673 5.04958 2
    endloop
  endfacet
  facet normal 0 0 1
    outer loop
      vertex -3.16383 4.18959 2
      vertex -3.50038 2.93717 2
      vertex -2.28471 3.95723 2
    endloop
  endfacet
  facet normal 0 0 1
    outer loop
      vertex -4.46364 2.76377 2
      vertex -3.50038 2.93717 2
      vertex -3.16383 4.18959 2
    endloop
  endfacet
  facet normal 0 0 1
    outer loop
      vertex -3.50038 2.93717 2
      vertex -4.46364 2.76377 2
      vertex -4.29385 1.56283 2
    endloop
  endfacet
  facet normal 0 0 1
    outer loop
      vertex -5.16061 0.964684 2
      vertex -4.29385 1.56283 2
      vertex -4.46364 2.76377 2
    endloop
  endfacet
  facet normal 0 0 1
    outer loop
      vertex -4.29385 1.56283 2
      vertex -5.16061 0.964684 2
      vertex -4.56942 0 2
    endloop
  endfacet
  facet normal 0 0 1
    outer loop
      vertex 5.25 0 2
      vertex 4.29385 -1.56283 2
      vertex 4.89548 -1.89652 2
    endloop
  endfacet
  facet normal 0 0 1
    outer loop
      vertex 3.50038 -2.93717 2
      vertex 4.89548 -1.89652 2
      vertex 4.29385 -1.56283 2
    endloop
  endfacet
  facet normal 0 0 1
    outer loop
      vertex 4.89548 -1.89652 2
      vertex 3.50038 -2.93717 2
      vertex 3.8798 -3.5369 2
    endloop
  endfacet
  facet normal 0 0 1
    outer loop
      vertex 2.28471 -3.95723 2
      vertex 3.8798 -3.5369 2
      vertex 3.50038 -2.93717 2
    endloop
  endfacet
  facet normal 0 0 1
    outer loop
      vertex 3.8798 -3.5369 2
      vertex 2.28471 -3.95723 2
      vertex 2.34013 -4.69961 2
    endloop
  endfacet
  facet normal -0 0 1
    outer loop
      vertex 0.793471 -4.5 2
      vertex 2.34013 -4.69961 2
      vertex 2.28471 -3.95723 2
    endloop
  endfacet
  facet normal 0 0 1
    outer loop
      vertex 0.793471 -4.5 2
      vertex 0.484408 -5.2276 2
      vertex 2.34013 -4.69961 2
    endloop
  endfacet
  facet normal -0 0 1
    outer loop
      vertex -0.793471 -4.5 2
      vertex 0.484408 -5.2276 2
      vertex 0.793471 -4.5 2
    endloop
  endfacet
  facet normal 0 0 1
    outer loop
      vertex -0.793471 -4.5 2
      vertex -1.43673 -5.04958 2
      vertex 0.484408 -5.2276 2
    endloop
  endfacet
  facet normal 0 0 1
    outer loop
      vertex -2.28471 -3.95723 2
      vertex -1.43673 -5.04958 2
      vertex -0.793471 -4.5 2
    endloop
  endfacet
  facet normal 0 0 1
    outer loop
      vertex -2.28471 -3.95723 2
      vertex -3.16383 -4.18959 2
      vertex -1.43673 -5.04958 2
    endloop
  endfacet
  facet normal 0 0 1
    outer loop
      vertex -3.50038 -2.93717 2
      vertex -3.16383 -4.18959 2
      vertex -2.28471 -3.95723 2
    endloop
  endfacet
  facet normal -0 0 1
    outer loop
      vertex -4.46364 -2.76377 2
      vertex -3.50038 -2.93717 2
      vertex -4.29385 -1.56283 2
    endloop
  endfacet
  facet normal 0 0 1
    outer loop
      vertex -3.50038 -2.93717 2
      vertex -4.46364 -2.76377 2
      vertex -3.16383 -4.18959 2
    endloop
  endfacet
  facet normal -0 0 1
    outer loop
      vertex -5.16061 -0.964684 2
      vertex -4.29385 -1.56283 2
      vertex -4.56942 0 2
    endloop
  endfacet
  facet normal 0 0 1
    outer loop
      vertex -5.16061 -0.964684 2
      vertex -4.56942 0 2
      vertex -5.16061 0.964684 2
    endloop
  endfacet
  facet normal 0 0 1
    outer loop
      vertex -4.29385 -1.56283 2
      vertex -5.16061 -0.964684 2
      vertex -4.46364 -2.76377 2
    endloop
  endfacet
  facet normal -0.320418 0.628857 0.708429
    outer loop
      vertex -1.93136 5.9441 1
      vertex -3.67366 5.05635 1
      vertex -3.16383 4.18959 2
    endloop
  endfacet
  facet normal -0 0.699234 0.714893
    outer loop
      vertex -1.37017e-06 6.25 1
      vertex 0.484408 5.2276 2
      vertex 4.61967e-07 6.25 1
    endloop
  endfacet
  facet normal -0.0632302 0.682363 0.728274
    outer loop
      vertex 0.484408 5.2276 2
      vertex -1.37017e-06 6.25 1
      vertex -1.43673 5.04958 2
    endloop
  endfacet
  facet normal 0.40774 0.539935 0.736355
    outer loop
      vertex 3.67366 5.05635 1
      vertex 2.34013 4.69961 2
      vertex 3.8798 3.5369 2
    endloop
  endfacet
  facet normal 0.57986 -0.359034 0.731339
    outer loop
      vertex 3.8798 -3.5369 2
      vertex 5.05636 -3.67366 1
      vertex 4.89548 -1.89652 2
    endloop
  endfacet
  facet normal 0.57245 -0.381633 0.725711
    outer loop
      vertex 5.05636 -3.67366 1
      vertex 3.8798 -3.5369 2
      vertex 5.05635 -3.67366 1
    endloop
  endfacet
  facet normal -0.676236 0 0.736685
    outer loop
      vertex -6.25 9.19994e-07 1
      vertex -5.16061 -0.964684 2
      vertex -5.16061 0.964684 2
    endloop
  endfacet
  facet normal -0.676236 0 0.736685
    outer loop
      vertex -5.16061 -0.964684 2
      vertex -6.25 9.19994e-07 1
      vertex -6.25 -9.19994e-07 1
    endloop
  endfacet
  facet normal -0.725037 0.114835 0.679069
    outer loop
      vertex -5.9441 1.93135 1
      vertex -6.25 9.19994e-07 1
      vertex -5.16061 0.964684 2
    endloop
  endfacet
  facet normal -0.725037 -0.114835 0.679069
    outer loop
      vertex -5.16061 -0.964684 2
      vertex -6.25 -9.19994e-07 1
      vertex -5.9441 -1.93135 1
    endloop
  endfacet
  facet normal -0.633596 0.245457 0.733694
    outer loop
      vertex -5.9441 1.93136 1
      vertex -5.16061 0.964684 2
      vertex -4.46364 2.76377 2
    endloop
  endfacet
  facet normal -0.681146 0.181639 0.709258
    outer loop
      vertex -5.16061 0.964684 2
      vertex -5.9441 1.93136 1
      vertex -5.9441 1.93135 1
    endloop
  endfacet
  facet normal -0.506695 0.506695 0.697511
    outer loop
      vertex -3.67366 5.05635 1
      vertex -5.05635 3.67366 1
      vertex -3.16383 4.18959 2
    endloop
  endfacet
  facet normal 0.173569 0.650883 0.739071
    outer loop
      vertex 1.93135 5.9441 1
      vertex 2.34013 4.69961 2
      vertex 1.93136 5.9441 1
    endloop
  endfacet
  facet normal 0.185455 0.651806 0.735361
    outer loop
      vertex 2.34013 4.69961 2
      vertex 1.93135 5.9441 1
      vertex 0.484408 5.2276 2
    endloop
  endfacet
  facet normal 0.57245 0.381633 0.725711
    outer loop
      vertex 3.8798 3.5369 2
      vertex 5.05636 3.67366 1
      vertex 5.05635 3.67366 1
    endloop
  endfacet
  facet normal 0.57986 0.359034 0.731339
    outer loop
      vertex 5.05636 3.67366 1
      vertex 3.8798 3.5369 2
      vertex 4.89548 1.89652 2
    endloop
  endfacet
  facet normal 0.333561 0.65465 0.678359
    outer loop
      vertex 3.67366 5.05635 1
      vertex 1.93136 5.9441 1
      vertex 2.34013 4.69961 2
    endloop
  endfacet
  facet normal -0.346975 -0.607206 0.714779
    outer loop
      vertex -1.43673 -5.04958 2
      vertex -1.93136 -5.9441 1
      vertex -1.93135 -5.9441 1
    endloop
  endfacet
  facet normal -0.31186 -0.626299 0.714488
    outer loop
      vertex -1.93136 -5.9441 1
      vertex -1.43673 -5.04958 2
      vertex -3.16383 -4.18959 2
    endloop
  endfacet
  facet normal 0.333561 -0.65465 0.678359
    outer loop
      vertex 2.34013 -4.69961 2
      vertex 1.93136 -5.9441 1
      vertex 3.67366 -5.05635 1
    endloop
  endfacet
  facet normal -0.509404 -0.464383 0.724469
    outer loop
      vertex -4.46364 -2.76377 2
      vertex -5.05635 -3.67366 1
      vertex -3.16383 -4.18959 2
    endloop
  endfacet
  facet normal 0.675693 0.180185 0.714824
    outer loop
      vertex 4.89548 1.89652 2
      vertex 5.9441 1.93135 1
      vertex 5.9441 1.93136 1
    endloop
  endfacet
  facet normal 0.682272 0.127539 0.719888
    outer loop
      vertex 5.9441 1.93135 1
      vertex 4.89548 1.89652 2
      vertex 5.25 0 2
    endloop
  endfacet
  facet normal -0.346975 0.607206 0.714779
    outer loop
      vertex -1.93136 5.9441 1
      vertex -1.43673 5.04958 2
      vertex -1.93135 5.9441 1
    endloop
  endfacet
  facet normal -0.31186 0.626299 0.714488
    outer loop
      vertex -1.43673 5.04958 2
      vertex -1.93136 5.9441 1
      vertex -3.16383 4.18959 2
    endloop
  endfacet
  facet normal -0.112801 0.712192 0.692862
    outer loop
      vertex -1.37017e-06 6.25 1
      vertex -1.93135 5.9441 1
      vertex -1.43673 5.04958 2
    endloop
  endfacet
  facet normal 0.114323 -0.721804 0.68259
    outer loop
      vertex 0.484408 -5.2276 2
      vertex 4.61967e-07 -6.25 1
      vertex 1.93135 -5.9441 1
    endloop
  endfacet
  facet normal 0 -0.699234 0.714893
    outer loop
      vertex 0.484408 -5.2276 2
      vertex -1.37017e-06 -6.25 1
      vertex 4.61967e-07 -6.25 1
    endloop
  endfacet
  facet normal -0.0632302 -0.682363 0.728274
    outer loop
      vertex -1.37017e-06 -6.25 1
      vertex 0.484408 -5.2276 2
      vertex -1.43673 -5.04958 2
    endloop
  endfacet
  facet normal -0.320418 -0.628857 0.708429
    outer loop
      vertex -3.16383 -4.18959 2
      vertex -3.67366 -5.05635 1
      vertex -1.93136 -5.9441 1
    endloop
  endfacet
  facet normal 0.702714 -0.111299 0.702713
    outer loop
      vertex 6.25 0 1
      vertex 5.25 0 2
      vertex 5.9441 -1.93135 1
    endloop
  endfacet
  facet normal 0.702714 0.111299 0.702713
    outer loop
      vertex 5.9441 1.93135 1
      vertex 5.25 0 2
      vertex 6.25 0 1
    endloop
  endfacet
  facet normal -0.506695 -0.506695 0.697511
    outer loop
      vertex -3.16383 -4.18959 2
      vertex -5.05635 -3.67366 1
      vertex -3.67366 -5.05635 1
    endloop
  endfacet
  facet normal -0.112801 -0.712192 0.692862
    outer loop
      vertex -1.43673 -5.04958 2
      vertex -1.93135 -5.9441 1
      vertex -1.37017e-06 -6.25 1
    endloop
  endfacet
  facet normal -0.984808 0.173648 0
    outer loop
      vertex 4.29385 -1.56283 0
      vertex 4.56942 0 2
      vertex 4.56942 0 0
    endloop
  endfacet
  facet normal -0.984808 0.173648 0
    outer loop
      vertex 4.56942 0 2
      vertex 4.29385 -1.56283 0
      vertex 4.29385 -1.56283 2
    endloop
  endfacet
  facet normal 0.866026 0.5 0
    outer loop
      vertex -3.50038 -2.93717 2
      vertex -4.29385 -1.56283 0
      vertex -4.29385 -1.56283 2
    endloop
  endfacet
  facet normal 0.866026 0.5 0
    outer loop
      vertex -4.29385 -1.56283 0
      vertex -3.50038 -2.93717 2
      vertex -3.50038 -2.93717 0
    endloop
  endfacet
  facet normal 0 1 -0
    outer loop
      vertex 0.793471 -4.5 0
      vertex -0.793471 -4.5 2
      vertex 0.793471 -4.5 2
    endloop
  endfacet
  facet normal 0 1 0
    outer loop
      vertex -0.793471 -4.5 2
      vertex 0.793471 -4.5 0
      vertex -0.793471 -4.5 0
    endloop
  endfacet
  facet normal 0.34202 0.939693 -0
    outer loop
      vertex -0.793471 -4.5 0
      vertex -2.28471 -3.95723 2
      vertex -0.793471 -4.5 2
    endloop
  endfacet
  facet normal 0.34202 0.939693 0
    outer loop
      vertex -2.28471 -3.95723 2
      vertex -0.793471 -4.5 0
      vertex -2.28471 -3.95723 0
    endloop
  endfacet
  facet normal -0.34202 0.939693 0
    outer loop
      vertex 2.28471 -3.95723 0
      vertex 0.793471 -4.5 2
      vertex 2.28471 -3.95723 2
    endloop
  endfacet
  facet normal -0.34202 0.939693 0
    outer loop
      vertex 0.793471 -4.5 2
      vertex 2.28471 -3.95723 0
      vertex 0.793471 -4.5 0
    endloop
  endfacet
  facet normal -0.866026 0.5 0
    outer loop
      vertex 3.50038 -2.93717 0
      vertex 4.29385 -1.56283 2
      vertex 4.29385 -1.56283 0
    endloop
  endfacet
  facet normal -0.866026 0.5 0
    outer loop
      vertex 4.29385 -1.56283 2
      vertex 3.50038 -2.93717 0
      vertex 3.50038 -2.93717 2
    endloop
  endfacet
  facet normal 0.34202 -0.939693 0
    outer loop
      vertex -2.28471 3.95723 0
      vertex -0.793471 4.5 2
      vertex -2.28471 3.95723 2
    endloop
  endfacet
  facet normal 0.34202 -0.939693 0
    outer loop
      vertex -0.793471 4.5 2
      vertex -2.28471 3.95723 0
      vertex -0.793471 4.5 0
    endloop
  endfacet
  facet normal 0.642787 0.766045 -0
    outer loop
      vertex -2.28471 -3.95723 0
      vertex -3.50038 -2.93717 2
      vertex -2.28471 -3.95723 2
    endloop
  endfacet
  facet normal 0.642787 0.766045 0
    outer loop
      vertex -3.50038 -2.93717 2
      vertex -2.28471 -3.95723 0
      vertex -3.50038 -2.93717 0
    endloop
  endfacet
  facet normal -0.642787 0.766045 0
    outer loop
      vertex 3.50038 -2.93717 0
      vertex 2.28471 -3.95723 2
      vertex 3.50038 -2.93717 2
    endloop
  endfacet
  facet normal -0.642787 0.766045 0
    outer loop
      vertex 2.28471 -3.95723 2
      vertex 3.50038 -2.93717 0
      vertex 2.28471 -3.95723 0
    endloop
  endfacet
  facet normal 0.984808 0.173648 0
    outer loop
      vertex -4.29385 -1.56283 2
      vertex -4.56942 0 0
      vertex -4.56942 0 2
    endloop
  endfacet
  facet normal 0.984808 0.173648 0
    outer loop
      vertex -4.56942 0 0
      vertex -4.29385 -1.56283 2
      vertex -4.29385 -1.56283 0
    endloop
  endfacet
  facet normal 0.984808 -0.173648 0
    outer loop
      vertex -4.56942 0 2
      vertex -4.29385 1.56283 0
      vertex -4.29385 1.56283 2
    endloop
  endfacet
  facet normal 0.984808 -0.173648 0
    outer loop
      vertex -4.29385 1.56283 0
      vertex -4.56942 0 2
      vertex -4.56942 0 0
    endloop
  endfacet
  facet normal 0.866026 -0.5 0
    outer loop
      vertex -4.29385 1.56283 2
      vertex -3.50038 2.93717 0
      vertex -3.50038 2.93717 2
    endloop
  endfacet
  facet normal 0.866026 -0.5 0
    outer loop
      vertex -3.50038 2.93717 0
      vertex -4.29385 1.56283 2
      vertex -4.29385 1.56283 0
    endloop
  endfacet
  facet normal -0.866026 -0.5 0
    outer loop
      vertex 4.29385 1.56283 0
      vertex 3.50038 2.93717 2
      vertex 3.50038 2.93717 0
    endloop
  endfacet
  facet normal -0.866026 -0.5 0
    outer loop
      vertex 3.50038 2.93717 2
      vertex 4.29385 1.56283 0
      vertex 4.29385 1.56283 2
    endloop
  endfacet
  facet normal 0.642787 -0.766045 0
    outer loop
      vertex -3.50038 2.93717 0
      vertex -2.28471 3.95723 2
      vertex -3.50038 2.93717 2
    endloop
  endfacet
  facet normal 0.642787 -0.766045 0
    outer loop
      vertex -2.28471 3.95723 2
      vertex -3.50038 2.93717 0
      vertex -2.28471 3.95723 0
    endloop
  endfacet
  facet normal 0 -1 0
    outer loop
      vertex -0.793471 4.5 0
      vertex 0.793471 4.5 2
      vertex -0.793471 4.5 2
    endloop
  endfacet
  facet normal 0 -1 -0
    outer loop
      vertex 0.793471 4.5 2
      vertex -0.793471 4.5 0
      vertex 0.793471 4.5 0
    endloop
  endfacet
  facet normal -0.984808 -0.173648 0
    outer loop
      vertex 4.56942 0 0
      vertex 4.29385 1.56283 2
      vertex 4.29385 1.56283 0
    endloop
  endfacet
  facet normal -0.984808 -0.173648 0
    outer loop
      vertex 4.29385 1.56283 2
      vertex 4.56942 0 0
      vertex 4.56942 0 2
    endloop
  endfacet
  facet normal -0.34202 -0.939693 0
    outer loop
      vertex 0.793471 4.5 0
      vertex 2.28471 3.95723 2
      vertex 0.793471 4.5 2
    endloop
  endfacet
  facet normal -0.34202 -0.939693 -0
    outer loop
      vertex 2.28471 3.95723 2
      vertex 0.793471 4.5 0
      vertex 2.28471 3.95723 0
    endloop
  endfacet
  facet normal -0.642787 -0.766045 0
    outer loop
      vertex 2.28471 3.95723 0
      vertex 3.50038 2.93717 2
      vertex 2.28471 3.95723 2
    endloop
  endfacet
  facet normal -0.642787 -0.766045 -0
    outer loop
      vertex 3.50038 2.93717 2
      vertex 2.28471 3.95723 0
      vertex 3.50038 2.93717 0
    endloop
  endfacet
  facet normal -0.951057 0.309017 0
    outer loop
      vertex -10.7596 2.28703 0
      vertex -10.049 4.4741 1
      vertex -10.049 4.4741 0
    endloop
  endfacet
  facet normal -0.951057 0.309017 0
    outer loop
      vertex -10.049 4.4741 1
      vertex -10.7596 2.28703 0
      vertex -10.7596 2.28703 1
    endloop
  endfacet
  facet normal 0.866025 0.5 0
    outer loop
      vertex 10.049 4.4741 1
      vertex 8.89919 6.46564 0
      vertex 8.89919 6.46564 1
    endloop
  endfacet
  facet normal 0.866025 0.5 0
    outer loop
      vertex 8.89919 6.46564 0
      vertex 10.049 4.4741 1
      vertex 10.049 4.4741 0
    endloop
  endfacet
  facet normal 0.951057 0.309017 0
    outer loop
      vertex 10.7596 2.28703 1
      vertex 10.049 4.4741 0
      vertex 10.049 4.4741 1
    endloop
  endfacet
  facet normal 0.951057 0.309017 0
    outer loop
      vertex 10.049 4.4741 0
      vertex 10.7596 2.28703 1
      vertex 10.7596 2.28703 0
    endloop
  endfacet
  facet normal 0.406737 0.913545 -0
    outer loop
      vertex 5.5 9.52628 0
      vertex 3.39919 10.4616 1
      vertex 5.5 9.52628 1
    endloop
  endfacet
  facet normal 0.406737 0.913545 0
    outer loop
      vertex 3.39919 10.4616 1
      vertex 5.5 9.52628 0
      vertex 3.39919 10.4616 0
    endloop
  endfacet
  facet normal -0.207912 0.978148 0
    outer loop
      vertex -1.14981 10.9397 0
      vertex -3.39919 10.4616 1
      vertex -1.14981 10.9397 1
    endloop
  endfacet
  facet normal -0.207912 0.978148 0
    outer loop
      vertex -3.39919 10.4616 1
      vertex -1.14981 10.9397 0
      vertex -3.39919 10.4616 0
    endloop
  endfacet
  facet normal -0.866025 0.5 0
    outer loop
      vertex -10.049 4.4741 0
      vertex -8.89919 6.46564 1
      vertex -8.89919 6.46564 0
    endloop
  endfacet
  facet normal -0.866025 0.5 0
    outer loop
      vertex -8.89919 6.46564 1
      vertex -10.049 4.4741 0
      vertex -10.049 4.4741 1
    endloop
  endfacet
  facet normal 0.994522 -0.104529 0
    outer loop
      vertex 10.7596 -2.28703 1
      vertex 11 0 0
      vertex 11 0 1
    endloop
  endfacet
  facet normal 0.994522 -0.104529 0
    outer loop
      vertex 11 0 0
      vertex 10.7596 -2.28703 1
      vertex 10.7596 -2.28703 0
    endloop
  endfacet
  facet normal 0.743145 0.66913 0
    outer loop
      vertex 8.89919 6.46564 1
      vertex 7.36044 8.17459 0
      vertex 7.36044 8.17459 1
    endloop
  endfacet
  facet normal 0.743145 0.66913 0
    outer loop
      vertex 7.36044 8.17459 0
      vertex 8.89919 6.46564 1
      vertex 8.89919 6.46564 0
    endloop
  endfacet
  facet normal 0 1 -0
    outer loop
      vertex 1.14981 10.9397 0
      vertex -1.14981 10.9397 1
      vertex 1.14981 10.9397 1
    endloop
  endfacet
  facet normal 0 1 0
    outer loop
      vertex -1.14981 10.9397 1
      vertex 1.14981 10.9397 0
      vertex -1.14981 10.9397 0
    endloop
  endfacet
  facet normal 0.587785 0.809017 -0
    outer loop
      vertex 7.36044 8.17459 0
      vertex 5.5 9.52628 1
      vertex 7.36044 8.17459 1
    endloop
  endfacet
  facet normal 0.587785 0.809017 0
    outer loop
      vertex 5.5 9.52628 1
      vertex 7.36044 8.17459 0
      vertex 5.5 9.52628 0
    endloop
  endfacet
  facet normal -0.994522 0.104529 0
    outer loop
      vertex -11 0 0
      vertex -10.7596 2.28703 1
      vertex -10.7596 2.28703 0
    endloop
  endfacet
  facet normal -0.994522 0.104529 0
    outer loop
      vertex -10.7596 2.28703 1
      vertex -11 0 0
      vertex -11 0 1
    endloop
  endfacet
  facet normal -0.743145 0.66913 0
    outer loop
      vertex -8.89919 6.46564 0
      vertex -7.36044 8.17459 1
      vertex -7.36044 8.17459 0
    endloop
  endfacet
  facet normal -0.743145 0.66913 0
    outer loop
      vertex -7.36044 8.17459 1
      vertex -8.89919 6.46564 0
      vertex -8.89919 6.46564 1
    endloop
  endfacet
  facet normal -0.406737 0.913545 0
    outer loop
      vertex -3.39919 10.4616 0
      vertex -5.5 9.52628 1
      vertex -3.39919 10.4616 1
    endloop
  endfacet
  facet normal -0.406737 0.913545 0
    outer loop
      vertex -5.5 9.52628 1
      vertex -3.39919 10.4616 0
      vertex -5.5 9.52628 0
    endloop
  endfacet
  facet normal -0.587785 0.809017 0
    outer loop
      vertex -5.5 9.52628 0
      vertex -7.36044 8.17459 1
      vertex -5.5 9.52628 1
    endloop
  endfacet
  facet normal -0.587785 0.809017 0
    outer loop
      vertex -7.36044 8.17459 1
      vertex -5.5 9.52628 0
      vertex -7.36044 8.17459 0
    endloop
  endfacet
  facet normal 0.994522 0.104529 0
    outer loop
      vertex 11 0 1
      vertex 10.7596 2.28703 0
      vertex 10.7596 2.28703 1
    endloop
  endfacet
  facet normal 0.994522 0.104529 0
    outer loop
      vertex 10.7596 2.28703 0
      vertex 11 0 1
      vertex 11 0 0
    endloop
  endfacet
  facet normal 0.951057 -0.309017 0
    outer loop
      vertex 10.049 -4.4741 1
      vertex 10.7596 -2.28703 0
      vertex 10.7596 -2.28703 1
    endloop
  endfacet
  facet normal 0.951057 -0.309017 0
    outer loop
      vertex 10.7596 -2.28703 0
      vertex 10.049 -4.4741 1
      vertex 10.049 -4.4741 0
    endloop
  endfacet
  facet normal -0.587785 -0.809017 0
    outer loop
      vertex -7.36044 -8.17459 0
      vertex -5.5 -9.52628 1
      vertex -7.36044 -8.17459 1
    endloop
  endfacet
  facet normal -0.587785 -0.809017 -0
    outer loop
      vertex -5.5 -9.52628 1
      vertex -7.36044 -8.17459 0
      vertex -5.5 -9.52628 0
    endloop
  endfacet
  facet normal -0.866025 -0.5 0
    outer loop
      vertex -8.89919 -6.46564 0
      vertex -10.049 -4.4741 1
      vertex -10.049 -4.4741 0
    endloop
  endfacet
  facet normal -0.866025 -0.5 0
    outer loop
      vertex -10.049 -4.4741 1
      vertex -8.89919 -6.46564 0
      vertex -8.89919 -6.46564 1
    endloop
  endfacet
  facet normal 0.207912 0.978148 -0
    outer loop
      vertex 3.39919 10.4616 0
      vertex 1.14981 10.9397 1
      vertex 3.39919 10.4616 1
    endloop
  endfacet
  facet normal 0.207912 0.978148 0
    outer loop
      vertex 1.14981 10.9397 1
      vertex 3.39919 10.4616 0
      vertex 1.14981 10.9397 0
    endloop
  endfacet
  facet normal 0 0 1
    outer loop
      vertex 6.25 0 1
      vertex 11 0 1
      vertex 10.7596 2.28703 1
    endloop
  endfacet
  facet normal 0 0 1
    outer loop
      vertex 5.9441 1.93136 1
      vertex 10.7596 2.28703 1
      vertex 10.049 4.4741 1
    endloop
  endfacet
  facet normal 0 0 1
    outer loop
      vertex 11 0 1
      vertex 6.25 0 1
      vertex 10.7596 -2.28703 1
    endloop
  endfacet
  facet normal 0 0 1
    outer loop
      vertex 5.05636 3.67366 1
      vertex 10.049 4.4741 1
      vertex 8.89919 6.46564 1
    endloop
  endfacet
  facet normal -0 0 1
    outer loop
      vertex 5.9441 -1.93135 1
      vertex 10.7596 -2.28703 1
      vertex 6.25 0 1
    endloop
  endfacet
  facet normal 0 0 1
    outer loop
      vertex 5.05635 3.67366 1
      vertex 8.89919 6.46564 1
      vertex 7.36044 8.17459 1
    endloop
  endfacet
  facet normal -0 0 1
    outer loop
      vertex 5.9441 -1.93136 1
      vertex 10.7596 -2.28703 1
      vertex 5.9441 -1.93135 1
    endloop
  endfacet
  facet normal 0 0 1
    outer loop
      vertex 10.7596 -2.28703 1
      vertex 5.9441 -1.93136 1
      vertex 10.049 -4.4741 1
    endloop
  endfacet
  facet normal 0 0 1
    outer loop
      vertex 10.7596 2.28703 1
      vertex 5.9441 1.93135 1
      vertex 6.25 0 1
    endloop
  endfacet
  facet normal 0 0 1
    outer loop
      vertex 10.7596 2.28703 1
      vertex 5.9441 1.93136 1
      vertex 5.9441 1.93135 1
    endloop
  endfacet
  facet normal 0 0 1
    outer loop
      vertex 3.67366 5.05635 1
      vertex 7.36044 8.17459 1
      vertex 5.5 9.52628 1
    endloop
  endfacet
  facet normal 0 0 1
    outer loop
      vertex 10.049 4.4741 1
      vertex 5.05636 3.67366 1
      vertex 5.9441 1.93136 1
    endloop
  endfacet
  facet normal 0 0 1
    outer loop
      vertex 8.89919 6.46564 1
      vertex 5.05635 3.67366 1
      vertex 5.05636 3.67366 1
    endloop
  endfacet
  facet normal 0 0 1
    outer loop
      vertex 7.36044 8.17459 1
      vertex 3.67366 5.05635 1
      vertex 5.05635 3.67366 1
    endloop
  endfacet
  facet normal 0 0 1
    outer loop
      vertex 1.93136 5.9441 1
      vertex 5.5 9.52628 1
      vertex 3.39919 10.4616 1
    endloop
  endfacet
  facet normal 0 0 1
    outer loop
      vertex 5.5 9.52628 1
      vertex 1.93136 5.9441 1
      vertex 3.67366 5.05635 1
    endloop
  endfacet
  facet normal 0 0 1
    outer loop
      vertex 3.39919 10.4616 1
      vertex 1.93135 5.9441 1
      vertex 1.93136 5.9441 1
    endloop
  endfacet
  facet normal 0 0 1
    outer loop
      vertex 1.14981 10.9397 1
      vertex 1.93135 5.9441 1
      vertex 3.39919 10.4616 1
    endloop
  endfacet
  facet normal 0 0 1
    outer loop
      vertex 1.14981 10.9397 1
      vertex 4.61967e-07 6.25 1
      vertex 1.93135 5.9441 1
    endloop
  endfacet
  facet normal 0 0 1
    outer loop
      vertex 1.14981 10.9397 1
      vertex -1.37017e-06 6.25 1
      vertex 4.61967e-07 6.25 1
    endloop
  endfacet
  facet normal -0 0 1
    outer loop
      vertex -1.14981 10.9397 1
      vertex -1.37017e-06 6.25 1
      vertex 1.14981 10.9397 1
    endloop
  endfacet
  facet normal 0 0 1
    outer loop
      vertex -1.14981 10.9397 1
      vertex -1.93135 5.9441 1
      vertex -1.37017e-06 6.25 1
    endloop
  endfacet
  facet normal -0 0 1
    outer loop
      vertex -3.39919 10.4616 1
      vertex -1.93135 5.9441 1
      vertex -1.14981 10.9397 1
    endloop
  endfacet
  facet normal 0 0 1
    outer loop
      vertex -1.93135 5.9441 1
      vertex -3.39919 10.4616 1
      vertex -1.93136 5.9441 1
    endloop
  endfacet
  facet normal -0 0 1
    outer loop
      vertex -5.5 9.52628 1
      vertex -1.93136 5.9441 1
      vertex -3.39919 10.4616 1
    endloop
  endfacet
  facet normal 0 0 1
    outer loop
      vertex -1.93136 5.9441 1
      vertex -5.5 9.52628 1
      vertex -3.67366 5.05635 1
    endloop
  endfacet
  facet normal -0 0 1
    outer loop
      vertex -7.36044 8.17459 1
      vertex -3.67366 5.05635 1
      vertex -5.5 9.52628 1
    endloop
  endfacet
  facet normal 0 0 1
    outer loop
      vertex -3.67366 5.05635 1
      vertex -7.36044 8.17459 1
      vertex -5.05635 3.67366 1
    endloop
  endfacet
  facet normal -0 0 1
    outer loop
      vertex -8.89919 6.46564 1
      vertex -5.05635 3.67366 1
      vertex -7.36044 8.17459 1
    endloop
  endfacet
  facet normal -0 0 1
    outer loop
      vertex -10.049 4.4741 1
      vertex -5.05635 3.67366 1
      vertex -8.89919 6.46564 1
    endloop
  endfacet
  facet normal -0 0 1
    outer loop
      vertex -10.7596 2.28703 1
      vertex -5.9441 1.93136 1
      vertex -10.049 4.4741 1
    endloop
  endfacet
  facet normal 0 0 1
    outer loop
      vertex -5.05635 3.67366 1
      vertex -10.049 4.4741 1
      vertex -5.9441 1.93136 1
    endloop
  endfacet
  facet normal -0 0 1
    outer loop
      vertex 5.05636 -3.67366 1
      vertex 10.049 -4.4741 1
      vertex 5.9441 -1.93136 1
    endloop
  endfacet
  facet normal 0 0 1
    outer loop
      vertex 10.049 -4.4741 1
      vertex 5.05636 -3.67366 1
      vertex 8.89919 -6.46564 1
    endloop
  endfacet
  facet normal -0 0 1
    outer loop
      vertex 5.05635 -3.67366 1
      vertex 8.89919 -6.46564 1
      vertex 5.05636 -3.67366 1
    endloop
  endfacet
  facet normal 0 0 1
    outer loop
      vertex 8.89919 -6.46564 1
      vertex 5.05635 -3.67366 1
      vertex 7.36044 -8.17459 1
    endloop
  endfacet
  facet normal -0 0 1
    outer loop
      vertex 3.67366 -5.05635 1
      vertex 7.36044 -8.17459 1
      vertex 5.05635 -3.67366 1
    endloop
  endfacet
  facet normal 0 0 1
    outer loop
      vertex 7.36044 -8.17459 1
      vertex 3.67366 -5.05635 1
      vertex 5.5 -9.52628 1
    endloop
  endfacet
  facet normal -0 0 1
    outer loop
      vertex 1.93136 -5.9441 1
      vertex 5.5 -9.52628 1
      vertex 3.67366 -5.05635 1
    endloop
  endfacet
  facet normal 0 0 1
    outer loop
      vertex 5.5 -9.52628 1
      vertex 1.93136 -5.9441 1
      vertex 3.39919 -10.4616 1
    endloop
  endfacet
  facet normal -0 0 1
    outer loop
      vertex 1.93135 -5.9441 1
      vertex 3.39919 -10.4616 1
      vertex 1.93136 -5.9441 1
    endloop
  endfacet
  facet normal 0 0 1
    outer loop
      vertex 1.93135 -5.9441 1
      vertex 1.14981 -10.9397 1
      vertex 3.39919 -10.4616 1
    endloop
  endfacet
  facet normal -0 0 1
    outer loop
      vertex 4.61967e-07 -6.25 1
      vertex 1.14981 -10.9397 1
      vertex 1.93135 -5.9441 1
    endloop
  endfacet
  facet normal -0 0 1
    outer loop
      vertex -1.37017e-06 -6.25 1
      vertex 1.14981 -10.9397 1
      vertex 4.61967e-07 -6.25 1
    endloop
  endfacet
  facet normal 0 0 1
    outer loop
      vertex -1.37017e-06 -6.25 1
      vertex -1.14981 -10.9397 1
      vertex 1.14981 -10.9397 1
    endloop
  endfacet
  facet normal 0 0 1
    outer loop
      vertex -1.93135 -5.9441 1
      vertex -1.14981 -10.9397 1
      vertex -1.37017e-06 -6.25 1
    endloop
  endfacet
  facet normal 0 0 1
    outer loop
      vertex -3.39919 -10.4616 1
      vertex -1.93135 -5.9441 1
      vertex -1.93136 -5.9441 1
    endloop
  endfacet
  facet normal 0 0 1
    outer loop
      vertex -1.93135 -5.9441 1
      vertex -3.39919 -10.4616 1
      vertex -1.14981 -10.9397 1
    endloop
  endfacet
  facet normal 0 0 1
    outer loop
      vertex -5.5 -9.52628 1
      vertex -1.93136 -5.9441 1
      vertex -3.67366 -5.05635 1
    endloop
  endfacet
  facet normal 0 0 1
    outer loop
      vertex -7.36044 -8.17459 1
      vertex -3.67366 -5.05635 1
      vertex -5.05635 -3.67366 1
    endloop
  endfacet
  facet normal 0 0 1
    outer loop
      vertex -1.93136 -5.9441 1
      vertex -5.5 -9.52628 1
      vertex -3.39919 -10.4616 1
    endloop
  endfacet
  facet normal 0 0 1
    outer loop
      vertex -10.049 -4.4741 1
      vertex -5.05635 -3.67366 1
      vertex -5.9441 -1.93136 1
    endloop
  endfacet
  facet normal 0 0 1
    outer loop
      vertex -10.7596 -2.28703 1
      vertex -5.9441 -1.93136 1
      vertex -5.9441 -1.93135 1
    endloop
  endfacet
  facet normal 0 0 1
    outer loop
      vertex -10.7596 -2.28703 1
      vertex -5.9441 -1.93135 1
      vertex -6.25 -9.19994e-07 1
    endloop
  endfacet
  facet normal 0 0 1
    outer loop
      vertex -5.9441 1.93136 1
      vertex -10.7596 2.28703 1
      vertex -5.9441 1.93135 1
    endloop
  endfacet
  facet normal 0 0 1
    outer loop
      vertex -3.67366 -5.05635 1
      vertex -7.36044 -8.17459 1
      vertex -5.5 -9.52628 1
    endloop
  endfacet
  facet normal 0 0 1
    outer loop
      vertex -5.9441 1.93135 1
      vertex -10.7596 2.28703 1
      vertex -6.25 9.19994e-07 1
    endloop
  endfacet
  facet normal 0 0 1
    outer loop
      vertex -5.05635 -3.67366 1
      vertex -8.89919 -6.46564 1
      vertex -7.36044 -8.17459 1
    endloop
  endfacet
  facet normal 0 0 1
    outer loop
      vertex -11 0 1
      vertex -6.25 9.19994e-07 1
      vertex -10.7596 2.28703 1
    endloop
  endfacet
  facet normal 0 0 1
    outer loop
      vertex -5.05635 -3.67366 1
      vertex -10.049 -4.4741 1
      vertex -8.89919 -6.46564 1
    endloop
  endfacet
  facet normal 0 0 1
    outer loop
      vertex -6.25 9.19994e-07 1
      vertex -11 0 1
      vertex -6.25 -9.19994e-07 1
    endloop
  endfacet
  facet normal 0 0 1
    outer loop
      vertex -5.9441 -1.93136 1
      vertex -10.7596 -2.28703 1
      vertex -10.049 -4.4741 1
    endloop
  endfacet
  facet normal 0 0 1
    outer loop
      vertex -6.25 -9.19994e-07 1
      vertex -11 0 1
      vertex -10.7596 -2.28703 1
    endloop
  endfacet
  facet normal -0.994522 -0.104529 0
    outer loop
      vertex -10.7596 -2.28703 0
      vertex -11 0 1
      vertex -11 0 0
    endloop
  endfacet
  facet normal -0.994522 -0.104529 0
    outer loop
      vertex -11 0 1
      vertex -10.7596 -2.28703 0
      vertex -10.7596 -2.28703 1
    endloop
  endfacet
  facet normal -0.743145 -0.66913 0
    outer loop
      vertex -7.36044 -8.17459 0
      vertex -8.89919 -6.46564 1
      vertex -8.89919 -6.46564 0
    endloop
  endfacet
  facet normal -0.743145 -0.66913 0
    outer loop
      vertex -8.89919 -6.46564 1
      vertex -7.36044 -8.17459 0
      vertex -7.36044 -8.17459 1
    endloop
  endfacet
  facet normal 0.207912 -0.978148 0
    outer loop
      vertex 1.14981 -10.9397 0
      vertex 3.39919 -10.4616 1
      vertex 1.14981 -10.9397 1
    endloop
  endfacet
  facet normal 0.207912 -0.978148 0
    outer loop
      vertex 3.39919 -10.4616 1
      vertex 1.14981 -10.9397 0
      vertex 3.39919 -10.4616 0
    endloop
  endfacet
  facet normal 0.406737 -0.913545 0
    outer loop
      vertex 3.39919 -10.4616 0
      vertex 5.5 -9.52628 1
      vertex 3.39919 -10.4616 1
    endloop
  endfacet
  facet normal 0.406737 -0.913545 0
    outer loop
      vertex 5.5 -9.52628 1
      vertex 3.39919 -10.4616 0
      vertex 5.5 -9.52628 0
    endloop
  endfacet
  facet normal 0.743145 -0.66913 0
    outer loop
      vertex 7.36044 -8.17459 1
      vertex 8.89919 -6.46564 0
      vertex 8.89919 -6.46564 1
    endloop
  endfacet
  facet normal 0.743145 -0.66913 0
    outer loop
      vertex 8.89919 -6.46564 0
      vertex 7.36044 -8.17459 1
      vertex 7.36044 -8.17459 0
    endloop
  endfacet
  facet normal 0.587785 -0.809017 0
    outer loop
      vertex 5.5 -9.52628 0
      vertex 7.36044 -8.17459 1
      vertex 5.5 -9.52628 1
    endloop
  endfacet
  facet normal 0.587785 -0.809017 0
    outer loop
      vertex 7.36044 -8.17459 1
      vertex 5.5 -9.52628 0
      vertex 7.36044 -8.17459 0
    endloop
  endfacet
  facet normal 0.866025 -0.5 0
    outer loop
      vertex 8.89919 -6.46564 1
      vertex 10.049 -4.4741 0
      vertex 10.049 -4.4741 1
    endloop
  endfacet
  facet normal 0.866025 -0.5 0
    outer loop
      vertex 10.049 -4.4741 0
      vertex 8.89919 -6.46564 1
      vertex 8.89919 -6.46564 0
    endloop
  endfacet
  facet normal 0 -1 0
    outer loop
      vertex -1.14981 -10.9397 0
      vertex 1.14981 -10.9397 1
      vertex -1.14981 -10.9397 1
    endloop
  endfacet
  facet normal 0 -1 -0
    outer loop
      vertex 1.14981 -10.9397 1
      vertex -1.14981 -10.9397 0
      vertex 1.14981 -10.9397 0
    endloop
  endfacet
  facet normal -0.207912 -0.978148 0
    outer loop
      vertex -3.39919 -10.4616 0
      vertex -1.14981 -10.9397 1
      vertex -3.39919 -10.4616 1
    endloop
  endfacet
  facet normal -0.207912 -0.978148 -0
    outer loop
      vertex -1.14981 -10.9397 1
      vertex -3.39919 -10.4616 0
      vertex -1.14981 -10.9397 0
    endloop
  endfacet
  facet normal 0 0 -1
    outer loop
      vertex 4.56942 0 0
      vertex 11 0 0
      vertex 10.7596 -2.28703 0
    endloop
  endfacet
  facet normal 0 0 -1
    outer loop
      vertex 4.29385 -1.56283 0
      vertex 10.7596 -2.28703 0
      vertex 10.049 -4.4741 0
    endloop
  endfacet
  facet normal 0 0 -1
    outer loop
      vertex 11 0 0
      vertex 4.56942 0 0
      vertex 10.7596 2.28703 0
    endloop
  endfacet
  facet normal 0 0 -1
    outer loop
      vertex 4.29385 -1.56283 0
      vertex 10.049 -4.4741 0
      vertex 8.89919 -6.46564 0
    endloop
  endfacet
  facet normal 0 0 -1
    outer loop
      vertex 4.29385 1.56283 0
      vertex 10.7596 2.28703 0
      vertex 4.56942 0 0
    endloop
  endfacet
  facet normal 0 0 -1
    outer loop
      vertex 3.50038 -2.93717 0
      vertex 8.89919 -6.46564 0
      vertex 7.36044 -8.17459 0
    endloop
  endfacet
  facet normal -0 0 -1
    outer loop
      vertex 10.7596 2.28703 0
      vertex 4.29385 1.56283 0
      vertex 10.049 4.4741 0
    endloop
  endfacet
  facet normal 0 0 -1
    outer loop
      vertex 2.28471 -3.95723 0
      vertex 7.36044 -8.17459 0
      vertex 5.5 -9.52628 0
    endloop
  endfacet
  facet normal -0 0 -1
    outer loop
      vertex 10.049 4.4741 0
      vertex 4.29385 1.56283 0
      vertex 8.89919 6.46564 0
    endloop
  endfacet
  facet normal 0 0 -1
    outer loop
      vertex 3.50038 2.93717 0
      vertex 8.89919 6.46564 0
      vertex 4.29385 1.56283 0
    endloop
  endfacet
  facet normal 0 0 -1
    outer loop
      vertex 10.7596 -2.28703 0
      vertex 4.29385 -1.56283 0
      vertex 4.56942 0 0
    endloop
  endfacet
  facet normal 0 0 -1
    outer loop
      vertex 8.89919 -6.46564 0
      vertex 3.50038 -2.93717 0
      vertex 4.29385 -1.56283 0
    endloop
  endfacet
  facet normal 0 0 -1
    outer loop
      vertex 2.28471 -3.95723 0
      vertex 5.5 -9.52628 0
      vertex 3.39919 -10.4616 0
    endloop
  endfacet
  facet normal 0 0 -1
    outer loop
      vertex 7.36044 -8.17459 0
      vertex 2.28471 -3.95723 0
      vertex 3.50038 -2.93717 0
    endloop
  endfacet
  facet normal 0 0 -1
    outer loop
      vertex 0.793471 -4.5 0
      vertex 3.39919 -10.4616 0
      vertex 1.14981 -10.9397 0
    endloop
  endfacet
  facet normal 0 0 -1
    outer loop
      vertex 3.39919 -10.4616 0
      vertex 0.793471 -4.5 0
      vertex 2.28471 -3.95723 0
    endloop
  endfacet
  facet normal 0 0 -1
    outer loop
      vertex 1.14981 -10.9397 0
      vertex -0.793471 -4.5 0
      vertex 0.793471 -4.5 0
    endloop
  endfacet
  facet normal 0 0 -1
    outer loop
      vertex -1.14981 -10.9397 0
      vertex -0.793471 -4.5 0
      vertex 1.14981 -10.9397 0
    endloop
  endfacet
  facet normal 0 0 -1
    outer loop
      vertex -3.39919 -10.4616 0
      vertex -0.793471 -4.5 0
      vertex -1.14981 -10.9397 0
    endloop
  endfacet
  facet normal -0 0 -1
    outer loop
      vertex -0.793471 -4.5 0
      vertex -3.39919 -10.4616 0
      vertex -2.28471 -3.95723 0
    endloop
  endfacet
  facet normal 0 0 -1
    outer loop
      vertex -5.5 -9.52628 0
      vertex -2.28471 -3.95723 0
      vertex -3.39919 -10.4616 0
    endloop
  endfacet
  facet normal 0 0 -1
    outer loop
      vertex -7.36044 -8.17459 0
      vertex -2.28471 -3.95723 0
      vertex -5.5 -9.52628 0
    endloop
  endfacet
  facet normal -0 0 -1
    outer loop
      vertex -2.28471 -3.95723 0
      vertex -7.36044 -8.17459 0
      vertex -3.50038 -2.93717 0
    endloop
  endfacet
  facet normal 0 0 -1
    outer loop
      vertex -8.89919 -6.46564 0
      vertex -3.50038 -2.93717 0
      vertex -7.36044 -8.17459 0
    endloop
  endfacet
  facet normal -0 0 -1
    outer loop
      vertex -3.50038 -2.93717 0
      vertex -8.89919 -6.46564 0
      vertex -4.29385 -1.56283 0
    endloop
  endfacet
  facet normal 0 0 -1
    outer loop
      vertex -10.049 -4.4741 0
      vertex -4.29385 -1.56283 0
      vertex -8.89919 -6.46564 0
    endloop
  endfacet
  facet normal 0 0 -1
    outer loop
      vertex -4.56942 0 0
      vertex -7.36044 8.17459 0
      vertex -5.5 9.52628 0
    endloop
  endfacet
  facet normal 0 0 -1
    outer loop
      vertex -10.7596 -2.28703 0
      vertex -4.29385 -1.56283 0
      vertex -10.049 -4.4741 0
    endloop
  endfacet
  facet normal 0 0 -1
    outer loop
      vertex -4.56942 0 0
      vertex -8.89919 6.46564 0
      vertex -7.36044 8.17459 0
    endloop
  endfacet
  facet normal -0 0 -1
    outer loop
      vertex -4.29385 -1.56283 0
      vertex -10.7596 -2.28703 0
      vertex -4.56942 0 0
    endloop
  endfacet
  facet normal 0 0 -1
    outer loop
      vertex -4.56942 0 0
      vertex -10.049 4.4741 0
      vertex -8.89919 6.46564 0
    endloop
  endfacet
  facet normal 0 0 -1
    outer loop
      vertex -11 0 0
      vertex -4.56942 0 0
      vertex -10.7596 -2.28703 0
    endloop
  endfacet
  facet normal 0 0 -1
    outer loop
      vertex -4.56942 0 0
      vertex -10.7596 2.28703 0
      vertex -10.049 4.4741 0
    endloop
  endfacet
  facet normal 0 0 -1
    outer loop
      vertex -4.56942 0 0
      vertex -11 0 0
      vertex -10.7596 2.28703 0
    endloop
  endfacet
  facet normal -0 0 -1
    outer loop
      vertex 8.89919 6.46564 0
      vertex 3.50038 2.93717 0
      vertex 7.36044 8.17459 0
    endloop
  endfacet
  facet normal 0 0 -1
    outer loop
      vertex 2.28471 3.95723 0
      vertex 7.36044 8.17459 0
      vertex 3.50038 2.93717 0
    endloop
  endfacet
  facet normal -0 0 -1
    outer loop
      vertex 7.36044 8.17459 0
      vertex 2.28471 3.95723 0
      vertex 5.5 9.52628 0
    endloop
  endfacet
  facet normal -0 0 -1
    outer loop
      vertex 5.5 9.52628 0
      vertex 2.28471 3.95723 0
      vertex 3.39919 10.4616 0
    endloop
  endfacet
  facet normal 0 0 -1
    outer loop
      vertex 0.793471 4.5 0
      vertex 3.39919 10.4616 0
      vertex 2.28471 3.95723 0
    endloop
  endfacet
  facet normal -0 0 -1
    outer loop
      vertex 3.39919 10.4616 0
      vertex 0.793471 4.5 0
      vertex 1.14981 10.9397 0
    endloop
  endfacet
  facet normal 0 0 -1
    outer loop
      vertex -0.793471 4.5 0
      vertex 1.14981 10.9397 0
      vertex 0.793471 4.5 0
    endloop
  endfacet
  facet normal 0 0 -1
    outer loop
      vertex -0.793471 4.5 0
      vertex -1.14981 10.9397 0
      vertex 1.14981 10.9397 0
    endloop
  endfacet
  facet normal 0 0 -1
    outer loop
      vertex -3.39919 10.4616 0
      vertex -0.793471 4.5 0
      vertex -2.28471 3.95723 0
    endloop
  endfacet
  facet normal 0 0 -1
    outer loop
      vertex -0.793471 4.5 0
      vertex -3.39919 10.4616 0
      vertex -1.14981 10.9397 0
    endloop
  endfacet
  facet normal 0 0 -1
    outer loop
      vertex -5.5 9.52628 0
      vertex -2.28471 3.95723 0
      vertex -3.50038 2.93717 0
    endloop
  endfacet
  facet normal 0 0 -1
    outer loop
      vertex -5.5 9.52628 0
      vertex -3.50038 2.93717 0
      vertex -4.29385 1.56283 0
    endloop
  endfacet
  facet normal 0 0 -1
    outer loop
      vertex -5.5 9.52628 0
      vertex -4.29385 1.56283 0
      vertex -4.56942 0 0
    endloop
  endfacet
  facet normal 0 0 -1
    outer loop
      vertex -2.28471 3.95723 0
      vertex -5.5 9.52628 0
      vertex -3.39919 10.4616 0
    endloop
  endfacet
  facet normal -0.951057 -0.309017 0
    outer loop
      vertex -10.049 -4.4741 0
      vertex -10.7596 -2.28703 1
      vertex -10.7596 -2.28703 0
    endloop
  endfacet
  facet normal -0.951057 -0.309017 0
    outer loop
      vertex -10.7596 -2.28703 1
      vertex -10.049 -4.4741 0
      vertex -10.049 -4.4741 1
    endloop
  endfacet
  facet normal -0.406737 -0.913545 0
    outer loop
      vertex -5.5 -9.52628 0
      vertex -3.39919 -10.4616 1
      vertex -5.5 -9.52628 1
    endloop
  endfacet
  facet normal -0.406737 -0.913545 -0
    outer loop
      vertex -3.39919 -10.4616 1
      vertex -5.5 -9.52628 0
      vertex -3.39919 -10.4616 0
    endloop
  endfacet
endsolid OpenSCAD_Model
